<svg width="80" height="35" viewBox="0 0 80 35" fill="none" xmlns="http://www.w3.org/2000/svg">
<rect width="80" height="35" rx="17.5" fill="black"/>
<path d="M29.3553 18.9331C28.4518 19.1754 27.5208 19.298 26.586 19.2979C23.7393 19.2979 21.066 18.1806 19.058 16.1533C17.7394 14.8144 16.7914 13.1499 16.3085 11.3257C15.8257 9.50161 15.8248 7.58156 16.306 5.75698C16.3661 5.52885 16.3657 5.28878 16.3049 5.06085C16.244 4.83291 16.1249 4.62513 15.9595 4.45835C15.794 4.29157 15.588 4.17165 15.3621 4.11062C15.1363 4.04959 14.8985 4.04959 14.6726 4.11064C12.4102 4.71935 10.3461 5.91802 8.68731 7.58641C3.48997 12.8337 3.48997 21.3751 8.68731 26.6251C9.92268 27.8793 11.3922 28.8736 13.0107 29.5507C14.6292 30.2277 16.3647 30.5739 18.1166 30.5693C19.8681 30.5743 21.6032 30.2283 23.2213 29.5515C24.8394 28.8747 26.3084 27.8805 27.5433 26.6264C29.197 24.9514 30.3848 22.8663 30.9873 20.5808C31.0471 20.3528 31.0467 20.1129 30.9859 19.8851C30.9251 19.6573 30.8061 19.4497 30.6409 19.2829C30.4757 19.1161 30.27 18.996 30.0444 18.9346C29.8188 18.8732 29.5812 18.8727 29.3553 18.9331V18.9331ZM25.6593 24.7229C24.6713 25.726 23.496 26.5212 22.2015 27.0626C20.9071 27.604 19.5191 27.8808 18.118 27.877C16.7164 27.8805 15.328 27.6034 14.0331 27.0618C12.7382 26.5202 11.5625 25.7248 10.574 24.7216C6.41664 20.5229 6.41664 13.6899 10.574 9.49121C11.3773 8.68106 12.3048 8.00696 13.3206 7.49487C13.1719 9.43206 13.4392 11.3788 14.1043 13.2021C14.7693 15.0254 15.8164 16.6823 17.174 18.0595C18.535 19.4344 20.1756 20.4945 21.9823 21.1664C23.789 21.8384 25.7187 22.1061 27.638 21.9512C27.128 22.9751 26.4601 23.9107 25.6593 24.7229V24.7229Z" fill="#F1C40F"/>
<path d="M56.2259 17.5264C56.2259 21.2431 59.2206 24.2666 62.9019 24.2666C66.5833 24.2666 69.5779 21.2431 69.5779 17.5264C69.5779 13.8097 66.5833 10.7862 62.9019 10.7862C59.2206 10.7862 56.2259 13.8097 56.2259 17.5264ZM62.9019 13.4785C65.1126 13.4785 66.9113 15.2945 66.9113 17.5264C66.9113 19.7583 65.1126 21.5743 62.9019 21.5743C60.6913 21.5743 58.8926 19.7583 58.8926 17.5264C58.8926 15.2945 60.6913 13.4785 62.9019 13.4785ZM61.5659 26.9495H64.2326V30.9879H61.5659V26.9495ZM61.5659 4.06487H64.2326V8.10333H61.5659V4.06487ZM49.5659 16.1803H53.5659V18.8726H49.5659V16.1803ZM72.2326 16.1803H76.2326V18.8726H72.2326V16.1803ZM52.5273 26.092L55.3539 23.2354L57.2406 25.1389L54.4139 27.9954L52.5273 26.092ZM68.5553 9.91256L71.3846 7.05602L73.2699 8.95948L70.4406 11.816L68.5553 9.91256ZM55.3579 11.8174L52.5286 8.96083L54.4153 7.05737L57.2419 9.9139L55.3579 11.8174ZM73.2699 26.0933L71.3846 27.9968L68.5553 25.1403L70.4406 23.2368L73.2699 26.0933Z" fill="#F39C12"/>
<ellipse cx="61.5686" cy="17.5528" rx="14.6667" ry="14.8077" fill="#F1F1F1"/>
</svg>
