<svg width="80" height="35" viewBox="0 0 80 35" fill="none" xmlns="http://www.w3.org/2000/svg">
<rect width="80" height="35" rx="17.5" fill="black"/>
<path d="M29.6729 16.7664C28.7888 16.9813 27.8778 17.09 26.9629 17.09C24.1773 17.09 21.5612 16.0991 19.5962 14.3013C18.3059 13.1139 17.3782 11.6379 16.9057 10.0202C16.4332 8.40259 16.4323 6.6999 16.9032 5.08186C16.962 4.87956 16.9616 4.66666 16.9021 4.46453C16.8426 4.2624 16.726 4.07814 16.5641 3.93024C16.4022 3.78234 16.2006 3.67599 15.9796 3.62187C15.7586 3.56775 15.5259 3.56775 15.3049 3.62189C13.0909 4.16169 11.071 5.22467 9.44778 6.70419C4.36181 11.3575 4.36181 18.9319 9.44778 23.5876C10.6567 24.6998 12.0947 25.5817 13.6785 26.182C15.2624 26.7824 16.9607 27.0895 18.6751 27.0854C20.389 27.0898 22.0869 26.783 23.6704 26.1828C25.2538 25.5826 26.6914 24.7009 27.8998 23.5888C29.5181 22.1034 30.6804 20.2544 31.27 18.2276C31.3285 18.0254 31.3281 17.8127 31.2686 17.6107C31.2091 17.4087 31.0927 17.2245 30.931 17.0766C30.7693 16.9287 30.568 16.8222 30.3473 16.7677C30.1265 16.7133 29.894 16.7129 29.6729 16.7664V16.7664ZM26.0561 21.9008C25.0893 22.7903 23.9392 23.4955 22.6725 23.9756C21.4057 24.4557 20.0475 24.7012 18.6764 24.6978C17.3048 24.7009 15.9462 24.4552 14.679 23.975C13.4119 23.4947 12.2614 22.7893 11.294 21.8996C7.22577 18.1763 7.22577 12.1167 11.294 8.39337C12.0802 7.67493 12.9877 7.07714 13.9818 6.62301C13.8363 8.34091 14.0979 10.0673 14.7487 11.6842C15.3995 13.3011 16.4241 14.7704 17.7526 15.9917C19.0845 17.211 20.69 18.151 22.4579 18.7469C24.2259 19.3428 26.1143 19.5803 27.9924 19.4429C27.4934 20.3509 26.8398 21.1805 26.0561 21.9008V21.9008Z" fill="#F1C40F"/>
<path d="M53.6909 15.5424C53.6909 18.8383 56.6214 21.5195 60.2238 21.5195C63.8263 21.5195 66.7568 18.8383 66.7568 15.5424C66.7568 12.2464 63.8263 9.56518 60.2238 9.56518C56.6214 9.56518 53.6909 12.2464 53.6909 15.5424ZM60.2238 11.9527C62.3871 11.9527 64.1473 13.5631 64.1473 15.5424C64.1473 17.5216 62.3871 19.132 60.2238 19.132C58.0605 19.132 56.3004 17.5216 56.3004 15.5424C56.3004 13.5631 58.0605 11.9527 60.2238 11.9527ZM58.9165 23.8987H61.526V27.48H58.9165V23.8987ZM58.9165 3.60471H61.526V7.186H58.9165V3.60471ZM47.1736 14.3486H51.0879V16.7361H47.1736V14.3486ZM69.3546 14.3486H73.2689V16.7361H69.3546V14.3486ZM50.0715 23.1383L52.8376 20.6051L54.6838 22.2931L51.9177 24.8263L50.0715 23.1383ZM65.756 8.79042L68.5248 6.25725L70.3697 7.94524L67.601 10.4784L65.756 8.79042ZM52.8415 10.4796L50.0728 7.94643L51.919 6.25845L54.6851 8.79162L52.8415 10.4796ZM70.3697 23.1395L68.5248 24.8275L65.756 22.2943L67.601 20.6063L70.3697 23.1395Z" fill="#F39C12"/>
<ellipse cx="18.7451" cy="17.5528" rx="14.6667" ry="14.8077" fill="#F1F1F1"/>
</svg>
